FILE "[PSX] Official U.S. PlayStation Magazine 34 [SCUS-94593].bin" BINARY
  TRACK 01 MODE2/2352
    INDEX 01 00:00:00
  TRACK 02 AUDIO
    PREGAP 00:02:00
    INDEX 01 34:28:41
  TRACK 03 AUDIO
    INDEX 00 36:13:71
    INDEX 01 36:15:71
